<svg clip-rule="evenodd" fill-rule="evenodd" height="512" stroke-linejoin="round" stroke-miterlimit="2" viewBox="0 0 64 64" width="512" xmlns="http://www.w3.org/2000/svg" xmlns:xlink="http://www.w3.org/1999/xlink"><linearGradient id="_Linear1" gradientUnits="userSpaceOnUse" x1="0" x2="64" y1="32" y2="32"><stop offset="0" stop-color="#0c24fe"/><stop offset="1" stop-color="#b956ff"/></linearGradient><g id="ICON"><path d="m4 14v36c0 5.523 4.477 10 10 10h36c2.652 0 5.196-1.054 7.071-2.929s2.929-4.419 2.929-7.071v-36c0-2.652-1.054-5.196-2.929-7.071s-4.419-2.929-7.071-2.929h-36c-5.523 0-10 4.477-10 10zm4 36v-36c0-3.314 2.686-6 6-6h36c1.591 0 3.117.632 4.243 1.757 1.125 1.126 1.757 2.652 1.757 4.243v36c0 1.591-.632 3.117-1.757 4.243-1.126 1.125-2.652 1.757-4.243 1.757-9.777 0-26.223 0-36 0-3.314 0-6-2.686-6-6zm37.167-22.915c-5.748-3.349-14.423-8.404-20.199-11.77-1.856-1.082-4.148-1.089-6.01-.018-1.863 1.07-3.011 3.054-3.011 5.202v23.541c0 2.147 1.148 4.132 3.011 5.202 1.862 1.07 4.154 1.063 6.01-.018l20.199-11.771c1.845-1.075 2.979-3.049 2.979-5.184s-1.134-4.109-2.979-5.184zm-2.014 3.456c.615.359.993 1.017.993 1.728 0 .712-.378 1.37-.993 1.728 0 0-20.199 11.771-20.199 11.771-.619.36-1.383.362-2.003.006-.621-.357-1.004-1.018-1.004-1.734v-23.541c0-.716.383-1.377 1.004-1.734.62-.357 1.384-.355 2.003.006z" fill="url(#_Linear1)"/></g></svg>